<svg width="129" height="287" viewBox="0 0 129 287" fill="none" xmlns="http://www.w3.org/2000/svg">
<path fill-rule="evenodd" clip-rule="evenodd" d="M71.0032 286.656L63.3734 284.048C63.3734 284.048 64.3052 245.151 50.3443 242.359C41.0404 231.563 51.8368 -215.499 85.3372 240.869C85.3372 240.869 73.7966 246.637 71.7495 256.504C69.5148 266.183 71.0032 286.656 71.0032 286.656Z" fill="white"/>
<path fill-rule="evenodd" clip-rule="evenodd" d="M71.0032 286.656L63.3734 284.048C63.3734 284.048 64.3052 245.151 50.3443 242.359C41.0404 231.563 51.8368 -215.499 85.3372 240.869C85.3372 240.869 73.7966 246.637 71.7495 256.504C69.5148 266.183 71.0032 286.656 71.0032 286.656Z" fill="#A6A385"/>
<path fill-rule="evenodd" clip-rule="evenodd" d="M75.0953 249.062C75.0953 249.062 141.915 205.136 126.278 113.749C111.204 47.307 75.654 25.5307 71.7453 17.1546C67.4654 11.1988 63.3691 0.777527 63.3691 0.777527L66.1625 185.592C66.1625 185.78 60.3922 242.174 75.0973 249.064" fill="white"/>
<path fill-rule="evenodd" clip-rule="evenodd" d="M75.0953 249.062C75.0953 249.062 141.915 205.136 126.278 113.749C111.204 47.307 75.654 25.5307 71.7453 17.1546C67.4654 11.1988 63.3691 0.777527 63.3691 0.777527L66.1625 185.592C66.1625 185.78 60.3922 242.174 75.0973 249.064" fill="#499D4A"/>
<path fill-rule="evenodd" clip-rule="evenodd" d="M59.4665 251.479C59.4665 251.479 -3.25856 208.671 0.464599 133.294C4.00019 57.9148 48.297 20.8768 56.8586 14.1767C62.4434 8.22083 62.6289 5.98613 63.002 0.0302734C66.9108 8.40638 66.1665 125.291 66.7232 139.062C68.3972 192.106 63.7463 241.431 59.4665 251.479Z" fill="white"/>
<path fill-rule="evenodd" clip-rule="evenodd" d="M59.4665 251.479C59.4665 251.479 -3.25856 208.671 0.464599 133.294C4.00019 57.9148 48.297 20.8768 56.8586 14.1767C62.4434 8.22083 62.6289 5.98613 63.002 0.0302734C66.9108 8.40638 66.1665 125.291 66.7232 139.062C68.3972 192.106 63.7463 241.431 59.4665 251.479Z" fill="#58AA50"/>
</svg>
